# xmcd
#
# Track frame offsets:
#	150
#	11272
#	24685
#	41405
#	53747
#	70220
#	81137
#	93920
#	107380
#	120715
#	137517
#	153447
#	164845
#	176000
#
# Disc length: 2500 seconds
#
# Revision: 1
# Processed by: cddbd v1.5.1PL0 Copyright (c) Steve Scherf et al.
# Submitted via: audiograbber 1.83.01
#
DISCID=ab09c20e
DTITLE=Shaun McMonagle - Above and Beyond
DYEAR=1900
DGENRE=
TTITLE0=Above and Beyond
TTITLE1=Kids get lonesome too
TTITLE2=Beautiful Meath
TTITLE3=Reuben James
TTITLE4=Our love story
TTITLE5=Sweetest of all
TTITLE6=Tearfall tonight
TTITLE7=Back on my mind
TTITLE8=Frauline
TTITLE9=Homestead in Mayo
TTITLE10=I cross my heart
TTITLE11=Summertime in Ireland
TTITLE12=I just cant get her out of my mind
TTITLE13=All I can be
EXTD=
EXTT0=
EXTT1=
EXTT2=
EXTT3=
EXTT4=
EXTT5=
EXTT6=
EXTT7=
EXTT8=
EXTT9=
EXTT10=
EXTT11=
EXTT12=
EXTT13=
PLAYORDER=
